<?xml version="1.0" encoding="UTF-8" standalone="no"?>
<!DOCTYPE svg PUBLIC "-//W3C//DTD SVG 1.1//EN" "http://www.w3.org/Graphics/SVG/1.1/DTD/svg11.dtd">
<svg width="100%" height="100%" viewBox="0 0 500 500" version="1.1" xmlns="http://www.w3.org/2000/svg" xmlns:xlink="http://www.w3.org/1999/xlink" xml:space="preserve" xmlns:serif="http://www.serif.com/" style="fill-rule:evenodd;clip-rule:evenodd;stroke-linejoin:round;stroke-miterlimit:2;">
    <g transform="matrix(1.16279,0,0,1.23153,-26.7442,-45.5665)">
        <path d="M453,81.66C453,57.011 431.806,37 405.7,37L70.3,37C44.194,37 23,57.011 23,81.66L23,398.34C23,422.989 44.194,443 70.3,443L405.7,443C431.806,443 453,422.989 453,398.34L453,81.66Z" style="fill:rgb(244,144,12);"/>
    </g>
    <g transform="matrix(1,0,0,1,-74.8908,171.453)">
        <g transform="matrix(370,0,0,370,140.631,218.266)">
            <path d="M0.098,-0.612C0.089,-0.612 0.081,-0.616 0.074,-0.623C0.067,-0.629 0.063,-0.638 0.063,-0.647C0.063,-0.656 0.067,-0.665 0.074,-0.672C0.081,-0.679 0.089,-0.682 0.098,-0.682L0.451,-0.682C0.457,-0.682 0.46,-0.685 0.46,-0.69L0.46,-0.79C0.46,-0.801 0.464,-0.81 0.472,-0.818C0.48,-0.826 0.489,-0.83 0.5,-0.83C0.511,-0.83 0.52,-0.826 0.528,-0.818C0.536,-0.81 0.54,-0.801 0.54,-0.79L0.54,-0.69C0.54,-0.685 0.543,-0.682 0.548,-0.682L0.902,-0.682C0.911,-0.682 0.92,-0.679 0.927,-0.672C0.934,-0.665 0.937,-0.656 0.937,-0.647C0.937,-0.638 0.934,-0.629 0.927,-0.623C0.92,-0.616 0.911,-0.612 0.902,-0.612L0.804,-0.612C0.799,-0.612 0.796,-0.609 0.793,-0.603C0.733,-0.418 0.656,-0.279 0.563,-0.186C0.56,-0.182 0.56,-0.178 0.563,-0.175C0.644,-0.115 0.756,-0.062 0.901,-0.015C0.91,-0.012 0.917,-0.006 0.922,0.002C0.926,0.011 0.927,0.02 0.924,0.029C0.921,0.038 0.915,0.045 0.906,0.05C0.897,0.055 0.888,0.056 0.879,0.053C0.724,0.004 0.6,-0.055 0.507,-0.125C0.502,-0.128 0.498,-0.128 0.493,-0.125C0.404,-0.057 0.281,0.002 0.122,0.052C0.113,0.055 0.103,0.055 0.094,0.05C0.085,0.045 0.079,0.038 0.076,0.029C0.073,0.02 0.073,0.01 0.078,0.001C0.083,-0.008 0.09,-0.013 0.099,-0.016C0.243,-0.062 0.355,-0.115 0.435,-0.175C0.44,-0.178 0.44,-0.182 0.435,-0.187C0.355,-0.266 0.289,-0.375 0.236,-0.512C0.233,-0.521 0.233,-0.531 0.238,-0.54C0.243,-0.549 0.25,-0.555 0.26,-0.558C0.271,-0.561 0.281,-0.56 0.29,-0.555C0.299,-0.55 0.306,-0.543 0.31,-0.533C0.359,-0.407 0.419,-0.308 0.492,-0.236C0.497,-0.232 0.502,-0.232 0.505,-0.236C0.586,-0.318 0.654,-0.441 0.709,-0.604C0.71,-0.609 0.708,-0.612 0.703,-0.612L0.098,-0.612Z" style="fill:white;fill-rule:nonzero;"/>
        </g>
    </g>
</svg>
